<svg xmlns="http://www.w3.org/2000/svg" xmlns:xlink="http://www.w3.org/1999/xlink" version="1.1" x="0px" y="0px" viewBox="NaN NaN NaN 125"><g transform="translate(0, 0)"><path d="M7.617,80.859 L15.82,80.859 C17.978,80.859 19.727,82.608 19.727,84.766 L19.727,92.969 C19.727,95.126 17.978,96.875 15.82,96.875 L7.617,96.875 C5.46,96.875 3.711,95.126 3.711,92.969 L3.711,84.766 C3.711,82.608 5.46,80.859 7.617,80.859 z" fill="#000000"/><g><path d="M26.758,80.859 L34.961,80.859 C37.118,80.859 38.867,82.608 38.867,84.766 L38.867,92.969 C38.867,95.126 37.118,96.875 34.961,96.875 L26.758,96.875 C24.6,96.875 22.852,95.126 22.852,92.969 L22.852,84.766 C22.852,82.608 24.6,80.859 26.758,80.859 z" fill="#000000"/><path d="M34.961,80.859 C37.118,80.859 38.867,82.608 38.867,84.766 L38.867,92.969 C38.867,95.126 37.118,96.875 34.961,96.875 L26.758,96.875 C24.6,96.875 22.852,95.126 22.852,92.969 L22.851,84.766 C22.852,82.608 24.6,80.859 26.758,80.859 L34.961,80.859 z M34.961,82.422 L26.758,82.422 C25.463,82.422 24.414,83.471 24.414,84.766 L24.414,92.969 C24.414,94.263 25.463,95.312 26.758,95.312 L34.961,95.312 C36.255,95.312 37.305,94.263 37.305,92.969 L37.305,84.766 C37.305,83.471 36.255,82.422 34.961,82.422 z" fill="#000000"/></g><g><path d="M45.898,80.859 L54.102,80.859 C56.259,80.859 58.008,82.608 58.008,84.766 L58.008,92.969 C58.008,95.126 56.259,96.875 54.102,96.875 L45.898,96.875 C43.741,96.875 41.992,95.126 41.992,92.969 L41.992,84.766 C41.992,82.608 43.741,80.859 45.898,80.859 z" fill="#000000"/><path d="M54.102,80.859 C56.259,80.859 58.008,82.608 58.008,84.766 L58.008,92.969 C58.008,95.126 56.259,96.875 54.102,96.875 L45.898,96.875 C43.741,96.875 41.992,95.126 41.992,92.969 L41.992,84.766 C41.992,82.608 43.741,80.859 45.898,80.859 L54.102,80.859 z M54.102,82.422 L45.898,82.422 C44.604,82.422 43.555,83.471 43.555,84.766 L43.555,92.969 C43.555,94.263 44.604,95.312 45.898,95.312 L54.102,95.312 C55.396,95.312 56.445,94.263 56.445,92.969 L56.445,84.766 C56.445,83.471 55.396,82.422 54.102,82.422 z" fill="#000000"/></g><g><path d="M65.039,80.859 L73.242,80.859 C75.4,80.859 77.148,82.608 77.148,84.766 L77.148,92.969 C77.148,95.126 75.4,96.875 73.242,96.875 L65.039,96.875 C62.882,96.875 61.133,95.126 61.133,92.969 L61.133,84.766 C61.133,82.608 62.882,80.859 65.039,80.859 z" fill="#000000"/><path d="M73.242,80.859 C75.4,80.859 77.148,82.608 77.148,84.766 L77.148,92.969 C77.148,95.126 75.4,96.875 73.242,96.875 L65.039,96.875 C62.882,96.875 61.133,95.126 61.133,92.969 L61.133,84.766 C61.133,82.608 62.882,80.859 65.039,80.859 L73.242,80.859 z M73.242,82.422 L65.039,82.422 C63.745,82.422 62.695,83.471 62.695,84.766 L62.695,92.969 C62.695,94.263 63.745,95.312 65.039,95.312 L73.242,95.312 C74.537,95.312 75.586,94.263 75.586,92.969 L75.586,84.766 C75.586,83.471 74.537,82.422 73.242,82.422 z" fill="#000000"/></g><g><path d="M84.18,80.859 L92.383,80.859 C94.54,80.859 96.289,82.608 96.289,84.766 L96.289,92.969 C96.289,95.126 94.54,96.875 92.383,96.875 L84.18,96.875 C82.022,96.875 80.273,95.126 80.273,92.969 L80.273,84.766 C80.273,82.608 82.022,80.859 84.18,80.859 z" fill="#000000"/><path d="M92.383,80.859 C94.54,80.859 96.289,82.608 96.289,84.766 L96.289,92.969 C96.289,95.126 94.54,96.875 92.383,96.875 L84.179,96.875 C82.022,96.875 80.273,95.126 80.273,92.969 L80.273,84.766 C80.273,82.608 82.022,80.859 84.18,80.859 L92.383,80.859 z M92.383,82.422 L84.179,82.422 C82.885,82.422 81.836,83.471 81.836,84.766 L81.836,92.969 C81.836,94.263 82.885,95.312 84.18,95.312 L92.383,95.312 C93.677,95.312 94.727,94.263 94.727,92.969 L94.727,84.766 C94.727,83.471 93.677,82.422 92.383,82.422 z" fill="#000000"/></g><g><path d="M26.758,61.719 L34.961,61.719 C37.118,61.719 38.867,63.468 38.867,65.625 L38.867,73.828 C38.867,75.985 37.118,77.734 34.961,77.734 L26.758,77.734 C24.6,77.734 22.852,75.985 22.852,73.828 L22.852,65.625 C22.852,63.468 24.6,61.719 26.758,61.719 z" fill="#000000"/><path d="M34.961,61.719 C37.118,61.719 38.867,63.468 38.867,65.625 L38.867,73.828 C38.867,75.985 37.118,77.734 34.961,77.734 L26.758,77.734 C24.6,77.734 22.852,75.985 22.852,73.828 L22.851,65.625 C22.852,63.468 24.6,61.719 26.758,61.719 L34.961,61.719 z M34.961,63.281 L26.758,63.281 C25.463,63.281 24.414,64.331 24.414,65.625 L24.414,73.828 C24.414,75.123 25.463,76.172 26.758,76.172 L34.961,76.172 C36.255,76.172 37.305,75.123 37.305,73.828 L37.305,65.625 C37.305,64.331 36.255,63.281 34.961,63.281 z" fill="#000000"/></g><g><path d="M45.898,61.719 L54.102,61.719 C56.259,61.719 58.008,63.468 58.008,65.625 L58.008,73.828 C58.008,75.985 56.259,77.734 54.102,77.734 L45.898,77.734 C43.741,77.734 41.992,75.985 41.992,73.828 L41.992,65.625 C41.992,63.468 43.741,61.719 45.898,61.719 z" fill="#000000"/><path d="M54.102,61.719 C56.259,61.719 58.008,63.468 58.008,65.625 L58.008,73.828 C58.008,75.985 56.259,77.734 54.102,77.734 L45.898,77.734 C43.741,77.734 41.992,75.985 41.992,73.828 L41.992,65.625 C41.992,63.468 43.741,61.719 45.898,61.719 L54.102,61.719 z M54.102,63.281 L45.898,63.281 C44.604,63.281 43.555,64.331 43.555,65.625 L43.555,73.828 C43.555,75.123 44.604,76.172 45.898,76.172 L54.102,76.172 C55.396,76.172 56.445,75.123 56.445,73.828 L56.445,65.625 C56.445,64.331 55.396,63.281 54.102,63.281 z" fill="#000000"/></g><g><path d="M45.898,42.578 L54.102,42.578 C56.259,42.578 58.008,44.327 58.008,46.484 L58.008,54.688 C58.008,56.845 56.259,58.594 54.102,58.594 L45.898,58.594 C43.741,58.594 41.992,56.845 41.992,54.688 L41.992,46.484 C41.992,44.327 43.741,42.578 45.898,42.578 z" fill="#000000"/><path d="M54.101,42.578 C56.259,42.578 58.008,44.327 58.008,46.484 L58.008,54.688 C58.008,56.845 56.259,58.594 54.102,58.594 L45.898,58.594 C43.741,58.594 41.992,56.845 41.992,54.688 L41.992,46.484 C41.992,44.327 43.741,42.578 45.898,42.578 L54.101,42.578 z M54.101,44.141 L45.898,44.141 C44.604,44.141 43.555,45.19 43.555,46.484 L43.555,54.688 C43.555,55.982 44.604,57.031 45.898,57.031 L54.101,57.031 C55.396,57.031 56.445,55.982 56.445,54.688 L56.445,46.484 C56.445,45.19 55.396,44.141 54.101,44.141 z" fill="#000000"/></g><g><path d="M65.039,61.719 L73.242,61.719 C75.4,61.719 77.148,63.468 77.148,65.625 L77.148,73.828 C77.148,75.985 75.4,77.734 73.242,77.734 L65.039,77.734 C62.882,77.734 61.133,75.985 61.133,73.828 L61.133,65.625 C61.133,63.468 62.882,61.719 65.039,61.719 z" fill="#000000"/><path d="M73.242,61.719 C75.4,61.719 77.148,63.468 77.148,65.625 L77.148,73.828 C77.148,75.985 75.4,77.734 73.242,77.734 L65.039,77.734 C62.882,77.734 61.133,75.985 61.133,73.828 L61.133,65.625 C61.133,63.468 62.882,61.719 65.039,61.719 L73.242,61.719 z M73.242,63.281 L65.039,63.281 C63.745,63.281 62.695,64.331 62.695,65.625 L62.695,73.828 C62.695,75.123 63.745,76.172 65.039,76.172 L73.242,76.172 C74.537,76.172 75.586,75.123 75.586,73.828 L75.586,65.625 C75.586,64.331 74.537,63.281 73.242,63.281 z" fill="#000000"/></g><g><path d="M65.039,42.578 L73.242,42.578 C75.4,42.578 77.148,44.327 77.148,46.484 L77.148,54.688 C77.148,56.845 75.4,58.594 73.242,58.594 L65.039,58.594 C62.882,58.594 61.133,56.845 61.133,54.688 L61.133,46.484 C61.133,44.327 62.882,42.578 65.039,42.578 z" fill="#000000"/><path d="M73.242,42.578 C75.4,42.578 77.148,44.327 77.148,46.484 L77.148,54.688 C77.148,56.845 75.4,58.594 73.242,58.594 L65.039,58.594 C62.882,58.594 61.133,56.845 61.133,54.688 L61.133,46.484 C61.133,44.327 62.882,42.578 65.039,42.578 L73.242,42.578 z M73.242,44.141 L65.039,44.141 C63.745,44.141 62.695,45.19 62.695,46.484 L62.695,54.688 C62.695,55.982 63.745,57.031 65.039,57.031 L73.242,57.031 C74.537,57.031 75.586,55.982 75.586,54.688 L75.586,46.484 C75.586,45.19 74.537,44.141 73.242,44.141 z" fill="#000000"/></g><g><path d="M65.039,23.438 L73.242,23.438 C75.4,23.438 77.148,25.186 77.148,27.344 L77.148,35.547 C77.148,37.704 75.4,39.453 73.242,39.453 L65.039,39.453 C62.882,39.453 61.133,37.704 61.133,35.547 L61.133,27.344 C61.133,25.186 62.882,23.438 65.039,23.438 z" fill="#000000"/><path d="M73.242,23.438 C75.4,23.438 77.148,25.186 77.148,27.344 L77.148,35.547 C77.148,37.704 75.4,39.453 73.242,39.453 L65.039,39.453 C62.882,39.453 61.133,37.704 61.133,35.547 L61.133,27.344 C61.133,25.186 62.882,23.438 65.039,23.438 L73.242,23.438 z M73.242,25 L65.039,25 C63.745,25 62.695,26.049 62.695,27.344 L62.695,35.547 C62.695,36.841 63.745,37.891 65.039,37.891 L73.242,37.891 C74.537,37.891 75.586,36.841 75.586,35.547 L75.586,27.344 C75.586,26.049 74.537,25 73.242,25 z" fill="#000000"/></g><g><path d="M84.18,61.719 L92.383,61.719 C94.54,61.719 96.289,63.468 96.289,65.625 L96.289,73.828 C96.289,75.985 94.54,77.734 92.383,77.734 L84.18,77.734 C82.022,77.734 80.273,75.985 80.273,73.828 L80.273,65.625 C80.273,63.468 82.022,61.719 84.18,61.719 z" fill="#000000"/><path d="M92.383,61.719 C94.54,61.719 96.289,63.468 96.289,65.625 L96.289,73.828 C96.289,75.985 94.54,77.734 92.383,77.734 L84.179,77.734 C82.022,77.734 80.273,75.985 80.273,73.828 L80.273,65.625 C80.273,63.468 82.022,61.719 84.18,61.719 L92.383,61.719 z M92.383,63.281 L84.179,63.281 C82.885,63.281 81.836,64.331 81.836,65.625 L81.836,73.828 C81.836,75.123 82.885,76.172 84.18,76.172 L92.383,76.172 C93.677,76.172 94.727,75.123 94.727,73.828 L94.727,65.625 C94.727,64.331 93.677,63.281 92.383,63.281 z" fill="#000000"/></g><g><path d="M84.18,42.578 L92.383,42.578 C94.54,42.578 96.289,44.327 96.289,46.484 L96.289,54.688 C96.289,56.845 94.54,58.594 92.383,58.594 L84.18,58.594 C82.022,58.594 80.273,56.845 80.273,54.688 L80.273,46.484 C80.273,44.327 82.022,42.578 84.18,42.578 z" fill="#000000"/><path d="M92.383,42.578 C94.54,42.578 96.289,44.327 96.289,46.484 L96.289,54.688 C96.289,56.845 94.54,58.594 92.383,58.594 L84.179,58.594 C82.022,58.594 80.273,56.845 80.273,54.688 L80.273,46.484 C80.273,44.327 82.022,42.578 84.18,42.578 L92.383,42.578 z M92.383,44.141 L84.179,44.141 C82.885,44.141 81.836,45.19 81.836,46.484 L81.836,54.688 C81.836,55.982 82.885,57.031 84.18,57.031 L92.383,57.031 C93.677,57.031 94.727,55.982 94.726,54.688 L94.726,46.484 C94.727,45.19 93.677,44.141 92.383,44.141 z" fill="#000000"/></g><g><path d="M84.18,23.438 L92.383,23.438 C94.54,23.438 96.289,25.186 96.289,27.344 L96.289,35.547 C96.289,37.704 94.54,39.453 92.383,39.453 L84.18,39.453 C82.022,39.453 80.273,37.704 80.273,35.547 L80.273,27.344 C80.273,25.186 82.022,23.438 84.18,23.438 z" fill="#000000"/><path d="M92.383,23.438 C94.54,23.438 96.289,25.186 96.289,27.344 L96.289,35.547 C96.289,37.704 94.54,39.453 92.383,39.453 L84.179,39.453 C82.022,39.453 80.273,37.704 80.273,35.547 L80.273,27.344 C80.273,25.186 82.022,23.438 84.18,23.438 L92.383,23.438 z M92.383,25 L84.179,25 C82.885,25 81.836,26.049 81.836,27.344 L81.836,35.547 C81.836,36.841 82.885,37.891 84.18,37.891 L92.383,37.891 C93.677,37.891 94.727,36.841 94.727,35.547 L94.727,27.344 C94.727,26.049 93.677,25 92.383,25 z" fill="#000000"/></g><path d="M92.383,4.297 C94.54,4.297 96.289,6.046 96.289,8.203 L96.289,16.406 C96.289,18.564 94.54,20.312 92.383,20.312 L84.179,20.312 C82.022,20.312 80.273,18.564 80.273,16.406 L80.273,8.203 C80.273,6.046 82.022,4.297 84.18,4.297 L92.383,4.297 z M92.383,5.859 L84.179,5.859 C82.885,5.859 81.836,6.909 81.836,8.203 L81.836,16.406 C81.836,17.701 82.885,18.75 84.18,18.75 L92.383,18.75 C93.677,18.75 94.727,17.701 94.726,16.406 L94.726,8.203 C94.727,6.909 93.677,5.859 92.383,5.859 z" fill="#000000"/></g></svg>
