<svg xmlns="http://www.w3.org/2000/svg" viewBox="0 0 48 60" x="0px" y="0px"><title>Zodiac</title><path d="M36.37,24.64a6.49,6.49,0,0,0-7.48-5.31,6.47,6.47,0,0,0-4.39,2.94,6.4,6.4,0,0,0-5.19-6.35,13.51,13.51,0,0,1,3.89-.77,11.62,11.62,0,0,1,10.23,4.94L35.07,19a13.56,13.56,0,0,0-11.95-5.79c-4.43.18-8.45,2.26-10.36,5.32a.36.36,0,0,1-.07.1l-.07.11h0A6.49,6.49,0,0,0,18,28.76a6.89,6.89,0,0,0,1.1-.09,6.47,6.47,0,0,0,4.39-2.94,6.38,6.38,0,0,0,5.2,6.34,13.25,13.25,0,0,1-3.9.78,11.65,11.65,0,0,1-10.23-4.94l-1.64,1.14a13.49,13.49,0,0,0,11.31,5.81l.64,0c4.43-.18,8.45-2.26,10.36-5.32a.36.36,0,0,1,.07-.1l.07-.11h0A6.46,6.46,0,0,0,36.37,24.64ZM18.77,26.7A4.49,4.49,0,0,1,13.6,23a4.49,4.49,0,0,1,3.67-5.18,4.74,4.74,0,0,1,.75-.06,4.49,4.49,0,0,1,.75,8.91Zm12,3.45a4.49,4.49,0,0,1-1.5-8.85,4.87,4.87,0,0,1,.76-.06A4.48,4.48,0,0,1,34.4,25,4.49,4.49,0,0,1,30.73,30.15Z"/><path d="M24,0A24,24,0,1,0,48,24,24,24,0,0,0,24,0Zm0,46A22,22,0,1,1,46,24,22,22,0,0,1,24,46Z"/><path d="M38.34,8.88,34.6,8.13,32.49,5a1,1,0,0,0-1-.42l-3.74.74L24.55,3.17a1,1,0,0,0-1.1,0L20.28,5.28l-3.74-.74a1,1,0,0,0-1,.42L13.4,8.13l-3.74.75a1,1,0,0,0-.78.78L8.13,13.4,5,15.51a1,1,0,0,0-.42,1l.74,3.74L3.17,23.45a1,1,0,0,0,0,1.1l2.11,3.17-.74,3.74a1,1,0,0,0,.42,1L8.13,34.6l.75,3.74a1,1,0,0,0,.78.78l3.74.75L15.51,43a1,1,0,0,0,1,.42l3.74-.74,3.17,2.11a1,1,0,0,0,1.1,0l3.17-2.11,3.74.74a1,1,0,0,0,1-.42l2.11-3.17,3.74-.75a1,1,0,0,0,.78-.78l.75-3.74L43,32.49a1,1,0,0,0,.42-1l-.74-3.74,2.11-3.17a1,1,0,0,0,0-1.1l-2.11-3.17.74-3.74a1,1,0,0,0-.42-1L39.87,13.4l-.75-3.74A1,1,0,0,0,38.34,8.88Zm3,7.92-.69,3.49a1,1,0,0,0,.15.75l2,3-2,3a1,1,0,0,0-.15.75l.69,3.49-3,2a1,1,0,0,0-.42.64l-.7,3.48L33.8,38a1,1,0,0,0-.63.42l-2,3-3.49-.69a1,1,0,0,0-.75.15l-3,2-3-2a.92.92,0,0,0-.55-.17.68.68,0,0,0-.2,0l-3.49.69-2-3a1,1,0,0,0-.64-.42l-3.48-.7L10,33.8a1,1,0,0,0-.42-.63l-3-2,.69-3.49A1,1,0,0,0,7.17,27l-2-3,2-3a1,1,0,0,0,.15-.75L6.63,16.8l3-2a1,1,0,0,0,.42-.64l.7-3.48L14.2,10a1,1,0,0,0,.63-.42l2-3,3.49.69A1,1,0,0,0,21,7.17l3-2,3,2a1,1,0,0,0,.75.15l3.49-.69,2,3a1,1,0,0,0,.64.42l3.48.7L38,14.2a1,1,0,0,0,.42.63Z"/></svg>
