<svg xmlns="http://www.w3.org/2000/svg" xmlns:xlink="http://www.w3.org/1999/xlink" version="1.1" x="0px" y="0px" viewBox="0 0 100 125" style="enable-background:new 0 0 100 100;" xml:space="preserve"><path d="M31.361,5L5,31.36V68.64L31.361,95h37.277L95,68.64V31.36L68.639,5H31.361z M89,66.154L66.154,89H33.846L11,66.154V33.846  L33.846,11h32.309L89,33.846V66.154z"/><path d="M36.332,17L17,36.331v27.338L36.332,83h27.336L83,63.669V36.331L63.668,17H36.332z M77,61.184L61.184,77H38.816L23,61.184  V38.816L38.816,23h22.367L77,38.816V61.184z"/><path d="M41.303,29L29,41.302v17.396L41.303,71h17.395L71,58.698V41.302L58.697,29H41.303z M65,56.213L56.213,65H43.787L35,56.213  V43.787L43.787,35h12.426L65,43.787V56.213z"/></svg>
