<svg xmlns="http://www.w3.org/2000/svg" viewBox="0 0 48 60" x="0px" y="0px"><title>Zodiac</title><path d="M34.43,12.56h-9v2H32L17.1,29.47,12,24.36l-1.42,1.41,5.12,5.12L12.88,33.7l1.41,1.41L17.1,32.3l5.14,5.14L23.65,36l-5.13-5.13L33.43,16v6.58h2v-9A1,1,0,0,0,34.43,12.56Z"/><path d="M24,0A24,24,0,1,0,48,24,24,24,0,0,0,24,0Zm0,46A22,22,0,1,1,46,24,22,22,0,0,1,24,46Z"/><path d="M38.34,8.88,34.6,8.13,32.49,5a1,1,0,0,0-1-.42l-3.74.74L24.55,3.17a1,1,0,0,0-1.1,0L20.28,5.28l-3.74-.74a1,1,0,0,0-1,.42L13.4,8.13l-3.74.75a1,1,0,0,0-.78.78L8.13,13.4,5,15.51a1,1,0,0,0-.42,1l.74,3.74L3.17,23.45a1,1,0,0,0,0,1.1l2.11,3.17-.74,3.74a1,1,0,0,0,.42,1L8.13,34.6l.75,3.74a1,1,0,0,0,.78.78l3.74.75L15.51,43a1,1,0,0,0,1,.42l3.74-.74,3.17,2.11a1,1,0,0,0,1.1,0l3.17-2.11,3.74.74a1,1,0,0,0,1-.42l2.11-3.17,3.74-.75a1,1,0,0,0,.78-.78l.75-3.74L43,32.49a1,1,0,0,0,.42-1l-.74-3.74,2.11-3.17a1,1,0,0,0,0-1.1l-2.11-3.17.74-3.74a1,1,0,0,0-.42-1L39.87,13.4l-.75-3.74A1,1,0,0,0,38.34,8.88Zm3,7.92-.69,3.49a1,1,0,0,0,.15.75l2,3-2,3a1,1,0,0,0-.15.75l.69,3.49-3,2a1,1,0,0,0-.42.64l-.7,3.48L33.8,38a1,1,0,0,0-.63.42l-2,3-3.49-.69a1,1,0,0,0-.75.15l-3,2-3-2a.92.92,0,0,0-.55-.17.68.68,0,0,0-.2,0l-3.49.69-2-3a1,1,0,0,0-.64-.42l-3.48-.7L10,33.8a1,1,0,0,0-.42-.63l-3-2,.69-3.49A1,1,0,0,0,7.17,27l-2-3,2-3a1,1,0,0,0,.15-.75L6.63,16.8l3-2a1,1,0,0,0,.42-.64l.7-3.48L14.2,10a1,1,0,0,0,.63-.42l2-3,3.49.69A1,1,0,0,0,21,7.17l3-2,3,2a1,1,0,0,0,.75.15l3.49-.69,2,3a1,1,0,0,0,.64.42l3.48.7L38,14.2a1,1,0,0,0,.42.63Z"/></svg>
