<svg xmlns="http://www.w3.org/2000/svg" viewBox="0 0 48 60" x="0px" y="0px"><title>Zodiac</title><path d="M34.11,24.52l-5.37,1.19.43,2,3.14-.7-2.11,3.6a.94.94,0,0,1-.8.46.92.92,0,0,1-.92-.92V19.21A4.73,4.73,0,0,0,20,16.34a4.69,4.69,0,0,0-3.74-1.87,4.74,4.74,0,0,0-4.74,4.74V33.53h2V19.21a2.74,2.74,0,1,1,5.48,0V33.53h2V19.21a2.75,2.75,0,0,1,5.49,0v10.9a2.92,2.92,0,0,0,5.45,1.47l2-3.38.64,2.89,2-.44L35.3,25.28A1,1,0,0,0,34.11,24.52Z"/><path d="M24,0A24,24,0,1,0,48,24,24,24,0,0,0,24,0Zm0,46A22,22,0,1,1,46,24,22,22,0,0,1,24,46Z"/><path d="M38.34,8.88,34.6,8.13,32.49,5a1,1,0,0,0-1-.42l-3.74.74L24.55,3.17a1,1,0,0,0-1.1,0L20.28,5.28l-3.74-.74a1,1,0,0,0-1,.42L13.4,8.13l-3.74.75a1,1,0,0,0-.78.78L8.13,13.4,5,15.51a1,1,0,0,0-.42,1l.74,3.74L3.17,23.45a1,1,0,0,0,0,1.1l2.11,3.17-.74,3.74a1,1,0,0,0,.42,1L8.13,34.6l.75,3.74a1,1,0,0,0,.78.78l3.74.75L15.51,43a1,1,0,0,0,1,.42l3.74-.74,3.17,2.11a1,1,0,0,0,1.1,0l3.17-2.11,3.74.74a1,1,0,0,0,1-.42l2.11-3.17,3.74-.75a1,1,0,0,0,.78-.78l.75-3.74L43,32.49a1,1,0,0,0,.42-1l-.74-3.74,2.11-3.17a1,1,0,0,0,0-1.1l-2.11-3.17.74-3.74a1,1,0,0,0-.42-1L39.87,13.4l-.75-3.74A1,1,0,0,0,38.34,8.88Zm3,7.92-.69,3.49a1,1,0,0,0,.15.75l2,3-2,3a1,1,0,0,0-.15.75l.69,3.49-3,2a1,1,0,0,0-.42.64l-.7,3.48L33.8,38a1,1,0,0,0-.63.42l-2,3-3.49-.69a1,1,0,0,0-.75.15l-3,2-3-2a.92.92,0,0,0-.55-.17.68.68,0,0,0-.2,0l-3.49.69-2-3a1,1,0,0,0-.64-.42l-3.48-.7L10,33.8a1,1,0,0,0-.42-.63l-3-2,.69-3.49A1,1,0,0,0,7.17,27l-2-3,2-3a1,1,0,0,0,.15-.75L6.63,16.8l3-2a1,1,0,0,0,.42-.64l.7-3.48L14.2,10a1,1,0,0,0,.63-.42l2-3,3.49.69A1,1,0,0,0,21,7.17l3-2,3,2a1,1,0,0,0,.75.15l3.49-.69,2,3a1,1,0,0,0,.64.42l3.48.7L38,14.2a1,1,0,0,0,.42.63Z"/></svg>
